<svg xmlns="http://www.w3.org/2000/svg" viewBox="0 0 900 580" fill="none"><defs><radialGradient id="world-light"><stop stop-color="#526bbd" stop-opacity=".2"/><stop offset="1" stop-color="#526bbd" stop-opacity="0"/></radialGradient></defs><ellipse cx="460" cy="330" rx="400" ry="250" fill="url(#world-light)"/><g opacity=".22" stroke="#4b5c7a"><path d="M80 430 720 110M140 460 780 140M200 490 840 170M140 310 560 520M200 280 620 490M260 250 680 460M320 220 740 430M380 190 800 400"/></g><path d="M145 390 745 150" stroke="#8ca9ef" stroke-dasharray="3 10" opacity=".5"/><g class="course-platform"><path d="M679 150 L745 182 L745 210 L679 178Z" fill="#293b65"/><path d="M745 182 L811 150 L811 178 L745 210Z" fill="#405987"/><path d="M679 150 L745 118 L811 150 L745 182Z" fill="#8796b8"/><ellipse cx="721" cy="148" rx="12" ry="5.5" fill="#b0c2ef" opacity=".34"/><ellipse cx="745" cy="136" rx="12" ry="5.5" fill="#b0c2ef" opacity=".34"/><ellipse cx="769" cy="148" rx="12" ry="5.5" fill="#b0c2ef" opacity=".34"/><ellipse cx="745" cy="160" rx="12" ry="5.5" fill="#b0c2ef" opacity=".34"/></g><g class="course-platform"><path d="M579 190 L645 222 L645 250 L579 218Z" fill="#293b65"/><path d="M645 222 L711 190 L711 218 L645 250Z" fill="#405987"/><path d="M579 190 L645 158 L711 190 L645 222Z" fill="#8796b8"/><ellipse cx="621" cy="188" rx="12" ry="5.5" fill="#b0c2ef" opacity=".34"/><ellipse cx="645" cy="176" rx="12" ry="5.5" fill="#b0c2ef" opacity=".34"/><ellipse cx="669" cy="188" rx="12" ry="5.5" fill="#b0c2ef" opacity=".34"/><ellipse cx="645" cy="200" rx="12" ry="5.5" fill="#b0c2ef" opacity=".34"/></g><g class="course-platform"><path d="M479 230 L545 262 L545 290 L479 258Z" fill="#293b65"/><path d="M545 262 L611 230 L611 258 L545 290Z" fill="#405987"/><path d="M479 230 L545 198 L611 230 L545 262Z" fill="#8796b8"/><ellipse cx="521" cy="228" rx="12" ry="5.5" fill="#b0c2ef" opacity=".34"/><ellipse cx="545" cy="216" rx="12" ry="5.5" fill="#b0c2ef" opacity=".34"/><ellipse cx="569" cy="228" rx="12" ry="5.5" fill="#b0c2ef" opacity=".34"/><ellipse cx="545" cy="240" rx="12" ry="5.5" fill="#b0c2ef" opacity=".34"/></g><g class="course-platform"><path d="M379 270 L445 302 L445 330 L379 298Z" fill="#293b65"/><path d="M445 302 L511 270 L511 298 L445 330Z" fill="#405987"/><path d="M379 270 L445 238 L511 270 L445 302Z" fill="#708fef"/><ellipse cx="421" cy="268" rx="12" ry="5.5" fill="#b0c2ef" opacity=".34"/><ellipse cx="445" cy="256" rx="12" ry="5.5" fill="#b0c2ef" opacity=".34"/><ellipse cx="469" cy="268" rx="12" ry="5.5" fill="#b0c2ef" opacity=".34"/><ellipse cx="445" cy="280" rx="12" ry="5.5" fill="#b0c2ef" opacity=".34"/><g class="checkpoint-beacon"><ellipse cx="445" cy="270" rx="48" ry="22" fill="none" stroke="#59e4ba" stroke-width="2"/><path d="M445 266V160" stroke="#dbe7ff" stroke-width="5"/><path d="M447 160l54 17-54 18Z" fill="#52ddb7"/><path d="M465 182l7 6 14-12" fill="none" stroke="#173d3b" stroke-width="4" stroke-linecap="round"/></g></g><g class="course-platform"><path d="M279 310 L345 342 L345 370 L279 338Z" fill="#293b65"/><path d="M345 342 L411 310 L411 338 L345 370Z" fill="#405987"/><path d="M279 310 L345 278 L411 310 L345 342Z" fill="#8796b8"/><ellipse cx="321" cy="308" rx="12" ry="5.5" fill="#b0c2ef" opacity=".34"/><ellipse cx="345" cy="296" rx="12" ry="5.5" fill="#b0c2ef" opacity=".34"/><ellipse cx="369" cy="308" rx="12" ry="5.5" fill="#b0c2ef" opacity=".34"/><ellipse cx="345" cy="320" rx="12" ry="5.5" fill="#b0c2ef" opacity=".34"/></g><g class="course-platform"><path d="M179 350 L245 382 L245 410 L179 378Z" fill="#293b65"/><path d="M245 382 L311 350 L311 378 L245 410Z" fill="#405987"/><path d="M179 350 L245 318 L311 350 L245 382Z" fill="#8796b8"/><ellipse cx="221" cy="348" rx="12" ry="5.5" fill="#b0c2ef" opacity=".34"/><ellipse cx="245" cy="336" rx="12" ry="5.5" fill="#b0c2ef" opacity=".34"/><ellipse cx="269" cy="348" rx="12" ry="5.5" fill="#b0c2ef" opacity=".34"/><ellipse cx="245" cy="360" rx="12" ry="5.5" fill="#b0c2ef" opacity=".34"/></g><g class="course-platform"><path d="M79 390 L145 422 L145 450 L79 418Z" fill="#293b65"/><path d="M145 422 L211 390 L211 418 L145 450Z" fill="#405987"/><path d="M79 390 L145 358 L211 390 L145 422Z" fill="#8796b8"/><ellipse cx="121" cy="388" rx="12" ry="5.5" fill="#b0c2ef" opacity=".34"/><ellipse cx="145" cy="376" rx="12" ry="5.5" fill="#b0c2ef" opacity=".34"/><ellipse cx="169" cy="388" rx="12" ry="5.5" fill="#b0c2ef" opacity=".34"/><ellipse cx="145" cy="400" rx="12" ry="5.5" fill="#b0c2ef" opacity=".34"/></g><g class="course-player-before"><ellipse cx="655" cy="272" rx="16" ry="7" fill="#091020" opacity=".45"/><path d="M643 242h10v28h-10Zm14 0h10v28h-10Z" fill="#273957"/><path d="M637 210h36v34h-36Z" fill="#657ff0"/><path d="M630 212h7v27h-7Zm43 0h7v27h-7Z" fill="#b1c5ea"/><rect x="643" y="185" width="24" height="23" rx="5" fill="#d8e2fa"/><path d="M650 193v3m10-3v3" stroke="#304774" stroke-width="2"/></g><g class="course-player-after"><ellipse cx="425" cy="267" rx="16" ry="7" fill="#091020" opacity=".45"/><path d="M413 237h10v28h-10Zm14 0h10v28h-10Z" fill="#273957"/><path d="M407 205h36v34h-36Z" fill="#657ff0"/><path d="M400 207h7v27h-7Zm43 0h7v27h-7Z" fill="#b1c5ea"/><rect x="413" y="180" width="24" height="23" rx="5" fill="#d8e2fa"/><path d="M420 188v3m10-3v3" stroke="#304774" stroke-width="2"/></g><g class="course-start"><path d="M108 454h70" stroke="#596b8e"/><text x="110" y="478" font-family="Arial,sans-serif" font-size="15" fill="#8a9ab7">START</text></g><g class="course-finish"><path d="M700 209h95" stroke="#596b8e"/><text x="712" y="232" font-family="Arial,sans-serif" font-size="15" fill="#8a9ab7">NEXT LEVEL</text></g><g class="course-return"><path d="M650 295C570 430 420 415 415 308" stroke="#52ddb7" stroke-width="2" stroke-dasharray="5 8"/><path d="m406 317 9-12 10 8" stroke="#52ddb7" stroke-width="2"/></g></svg>